# xmcd CD database file
#
# Track frame offsets:
#	150
#	12163
#	25404
#	33734
#	46507
#	60143
#	71459
#	86314
#	97445
#	107739
#	117760
#	130716
#
# Disc length: 1917 seconds
#
# Revision: 2
# Processed by: cddbd v1.5.1PL0 Copyright (c) Steve Scherf et al.
# Submitted via: CDex 1.51
#
DISCID=90077b0c
DTITLE=Slim Whitman - In The Sunset
DYEAR=2003
DGENRE=Country
TTITLE0=Now is the Hour
TTITLE1=Till I Waltz With You Again
TTITLE2=Have You Ever Been Lonely
TTITLE3=Tennessee Waltz
TTITLE4=You are My Sunshine
TTITLE5=Singing the Blues
TTITLE6=Mockin Bird Hill
TTITLE7=The Wayward Wind
TTITLE8=Anytime
TTITLE9=Cara Mia
TTITLE10=Release Me
TTITLE11=Red Sails in the Sunset
EXTD=YEAR: 2003
EXTT0=
EXTT1=
EXTT2=
EXTT3=
EXTT4=
EXTT5=
EXTT6=
EXTT7=
EXTT8=
EXTT9=
EXTT10=
EXTT11=
PLAYORDER=
